<?xml version="1.0" encoding="UTF-8"?>
<svg version="1.1" xmlns="http://www.w3.org/2000/svg" width="32" height="32">
<path d="M0 0 C10.56 0 21.12 0 32 0 C32 10.56 32 21.12 32 32 C21.44 32 10.88 32 0 32 C0 21.44 0 10.88 0 0 Z " fill="#5805AB" transform="translate(0,0)"/>
<path d="M0 0 C1.77007714 -0.08114106 3.54122098 -0.13925505 5.3125 -0.1875 C6.29863281 -0.22230469 7.28476562 -0.25710937 8.30078125 -0.29296875 C11 0 11 0 12.84375 1.34375 C14.425736 3.60983805 14.21871147 5.3025585 14 8 C12.02 8.99 12.02 8.99 10 10 C10.61875 11.11375 11.2375 12.2275 11.875 13.375 C12.39707031 14.31472656 12.39707031 14.31472656 12.9296875 15.2734375 C14.00897274 17.1612614 14.00897274 17.1612614 16 19 C13.6875 18.8125 13.6875 18.8125 11 18 C8 13.96551724 8 13.96551724 8 11 C6.68 11 5.36 11 4 11 C4 13.31 4 15.62 4 18 C4.66 18.33 5.32 18.66 6 19 C4.02 19 2.04 19 0 19 C0.66 18.67 1.32 18.34 2 18 C2 12.72 2 7.44 2 2 C1.34 2 0.68 2 0 2 C0 1.34 0 0.68 0 0 Z " fill="#E8DDF3" transform="translate(15,6)"/>
<path d="M0 0 C2.31 0 4.62 0 7 0 C7 0.66 7 1.32 7 2 C6.34 2 5.68 2 5 2 C5.03480469 3.04800781 5.06960938 4.09601562 5.10546875 5.17578125 C5.13360937 6.55467147 5.16090924 7.93357902 5.1875 9.3125 C5.22520508 10.34793945 5.22520508 10.34793945 5.26367188 11.40429688 C5.33760056 16.50537593 5.33760056 16.50537593 3.65625 18.96875 C1.38225373 20.38463447 -0.37761333 20.21262595 -3 20 C-3.33 18.68 -3.66 17.36 -4 16 C-3.01 15.67 -2.02 15.34 -1 15 C-1 15.99 -1 16.98 -1 18 C-0.01 18 0.98 18 2 18 C2 12.72 2 7.44 2 2 C1.34 2 0.68 2 0 2 C0 1.34 0 0.68 0 0 Z " fill="#D8C5EB" transform="translate(5,6)"/>
<path d="M0 0 C2.31 0 4.62 0 7 0 C7.04254356 1.99954746 7.04080783 4.00041636 7 6 C6 7 6 7 2.9375 7.0625 C1.4834375 7.0315625 1.4834375 7.0315625 0 7 C0 4.69 0 2.38 0 0 Z " fill="#5703AB" transform="translate(19,8)"/>
<path d="M0 0 C0.66 0 1.32 0 2 0 C2 0.99 2 1.98 2 3 C2.99 3.33 3.98 3.66 5 4 C5 4.33 5 4.66 5 5 C3.35 5 1.7 5 0 5 C-0.5625 3.0625 -0.5625 3.0625 -1 1 C-0.67 0.67 -0.34 0.34 0 0 Z " fill="#D1BAE8" transform="translate(2,21)"/>
</svg>
